<svg width="268" height="172" viewBox="0 0 268 172" fill="none" xmlns="http://www.w3.org/2000/svg">
<g opacity="0.6" clip-path="url(#clip0_127_978)">
<g opacity="0.5" filter="url(#filter0_d_127_978)">
<path d="M245.47 51.2824V104.718C245.359 112.257 242.283 119.449 236.906 124.741C231.529 130.033 224.284 133 216.735 133C209.186 133 201.941 130.033 196.564 124.741C191.187 119.449 188.111 112.257 188 104.718V51.2824C188.111 43.7434 191.187 36.5507 196.564 31.2587C201.941 25.9666 209.186 23 216.735 23C224.284 23 231.529 25.9666 236.906 31.2587C242.283 36.5507 245.359 43.7434 245.47 51.2824Z" fill="#681B97"/>
<g filter="url(#filter1_f_127_978)">
<path d="M245.47 51.2824V104.718C245.359 112.257 242.283 119.449 236.906 124.741C231.529 130.033 224.284 133 216.735 133C209.186 133 201.941 130.033 196.564 124.741C191.187 119.449 188.111 112.257 188 104.718V51.2824C188.111 43.7434 191.187 36.5507 196.564 31.2587C201.941 25.9666 209.186 23 216.735 23C224.284 23 231.529 25.9666 236.906 31.2587C242.283 36.5507 245.359 43.7434 245.47 51.2824Z" fill="#681B97"/>
</g>
<g style="mix-blend-mode:multiply">
<path d="M227.872 67.0036H205.592C202.418 67.0036 199.375 65.7443 197.131 63.5028C194.886 61.2612 193.626 58.2211 193.626 55.0511C193.626 51.8811 194.886 48.8409 197.131 46.5994C199.375 44.3579 202.418 43.0986 205.592 43.0986H227.872C231.045 43.0986 234.089 44.3579 236.333 46.5994C238.577 48.8409 239.838 51.8811 239.838 55.0511C239.838 58.2211 238.577 61.2612 236.333 63.5028C234.089 65.7443 231.045 67.0036 227.872 67.0036Z" fill="#400E63"/>
</g>
<g opacity="0.92">
<g style="mix-blend-mode:screen">
<path d="M227.872 64.9865H205.592C202.418 64.9865 199.375 63.7272 197.131 61.4857C194.886 59.2441 193.626 56.204 193.626 53.034C193.626 49.864 194.886 46.8239 197.131 44.5823C199.375 42.3408 202.418 41.0815 205.592 41.0815H227.872C231.045 41.0815 234.089 42.3408 236.333 44.5823C238.577 46.8239 239.838 49.864 239.838 53.034C239.838 56.204 238.577 59.2441 236.333 61.4857C234.089 63.7272 231.045 64.9865 227.872 64.9865Z" fill="#B297C4"/>
</g>
</g>
<path d="M227.872 66.0968H205.592C202.418 66.0968 199.375 64.8375 197.131 62.596C194.886 60.3545 193.626 57.3143 193.626 54.1444C193.626 50.9744 194.886 47.9342 197.131 45.6927C199.375 43.4512 202.418 42.1919 205.592 42.1919H227.872C231.045 42.1919 234.089 43.4512 236.333 45.6927C238.577 47.9342 239.838 50.9744 239.838 54.1444C239.838 57.3143 238.577 60.3545 236.333 62.596C234.089 64.8375 231.045 66.0968 227.872 66.0968Z" fill="#681B97"/>
</g>
<path d="M165.45 70.2824V123.718C165.339 131.257 162.264 138.449 156.889 143.741C151.514 149.033 144.271 152 136.725 152C129.179 152 121.936 149.033 116.561 143.741C111.186 138.449 108.111 131.257 108 123.718V70.2824C108.111 62.7434 111.186 55.5507 116.561 50.2587C121.936 44.9666 129.179 42 136.725 42C144.271 42 151.514 44.9666 156.889 50.2587C162.264 55.5507 165.339 62.7434 165.45 70.2824Z" fill="#36BAE8"/>
<g style="mix-blend-mode:multiply">
<path d="M147.858 83.4406H125.586C122.414 83.4406 119.371 82.1813 117.128 79.9398C114.884 77.6982 113.624 74.6581 113.624 71.4881C113.624 68.3181 114.884 65.278 117.128 63.0364C119.371 60.7949 122.414 59.5356 125.586 59.5356H147.858C151.03 59.5356 154.073 60.7949 156.316 63.0364C158.56 65.278 159.82 68.3181 159.82 71.4881C159.82 74.6581 158.56 77.6982 156.316 79.9398C154.073 82.1813 151.03 83.4406 147.858 83.4406Z" fill="#2B88A0"/>
</g>
<g opacity="0.91">
<g style="mix-blend-mode:screen">
<path d="M147.858 81.4215H125.586C122.414 81.4215 119.371 80.1622 117.128 77.9207C114.884 75.6792 113.624 72.6391 113.624 69.4691C113.624 66.2991 114.884 63.2589 117.128 61.0174C119.371 58.7759 122.414 57.5166 125.586 57.5166H147.858C151.03 57.5166 154.073 58.7759 156.316 61.0174C158.56 63.2589 159.82 66.2991 159.82 69.4691C159.82 72.6391 158.56 75.6792 156.316 77.9207C154.073 80.1622 151.03 81.4215 147.858 81.4215Z" fill="#ACD8E2"/>
</g>
</g>
<path d="M147.858 82.5641H125.586C122.414 82.5641 119.371 81.3048 117.128 79.0633C114.884 76.8218 113.624 73.7816 113.624 70.6116C113.624 67.4416 114.884 64.4015 117.128 62.16C119.371 59.9185 122.414 58.6592 125.586 58.6592H147.858C151.03 58.6592 154.073 59.9185 156.316 62.16C158.56 64.4015 159.82 67.4416 159.82 70.6116C159.82 73.7816 158.56 76.8218 156.316 79.0633C154.073 81.3048 151.03 82.5641 147.858 82.5641Z" fill="#36BAE8"/>
<g opacity="0.6" filter="url(#filter2_f_127_978)">
<path d="M165.45 70.2824V123.718C165.339 131.257 162.264 138.449 156.889 143.741C151.514 149.033 144.271 152 136.725 152C129.179 152 121.936 149.033 116.561 143.741C111.186 138.449 108.111 131.257 108 123.718V70.2824C108.111 62.7434 111.186 55.5507 116.561 50.2587C121.936 44.9666 129.179 42 136.725 42C144.271 42 151.514 44.9666 156.889 50.2587C162.264 55.5507 165.339 62.7434 165.45 70.2824Z" fill="#36BAE8"/>
<g style="mix-blend-mode:multiply">
<path d="M147.858 83.4406H125.586C122.414 83.4406 119.371 82.1813 117.128 79.9398C114.884 77.6982 113.624 74.6581 113.624 71.4881C113.624 68.3181 114.884 65.278 117.128 63.0364C119.371 60.7949 122.414 59.5356 125.586 59.5356H147.858C151.03 59.5356 154.073 60.7949 156.316 63.0364C158.56 65.278 159.82 68.3181 159.82 71.4881C159.82 74.6581 158.56 77.6982 156.316 79.9398C154.073 82.1813 151.03 83.4406 147.858 83.4406Z" fill="#2B88A0"/>
</g>
<g opacity="0.91">
<g style="mix-blend-mode:screen">
<path d="M147.858 81.4215H125.586C122.414 81.4215 119.371 80.1622 117.128 77.9207C114.884 75.6792 113.624 72.6391 113.624 69.4691C113.624 66.2991 114.884 63.2589 117.128 61.0174C119.371 58.7759 122.414 57.5166 125.586 57.5166H147.858C151.03 57.5166 154.073 58.7759 156.316 61.0174C158.56 63.2589 159.82 66.2991 159.82 69.4691C159.82 72.6391 158.56 75.6792 156.316 77.9207C154.073 80.1622 151.03 81.4215 147.858 81.4215Z" fill="#ACD8E2"/>
</g>
</g>
<path d="M147.858 82.5641H125.586C122.414 82.5641 119.371 81.3048 117.128 79.0633C114.884 76.8218 113.624 73.7816 113.624 70.6116C113.624 67.4416 114.884 64.4015 117.128 62.16C119.371 59.9185 122.414 58.6592 125.586 58.6592H147.858C151.03 58.6592 154.073 59.9185 156.316 62.16C158.56 64.4015 159.82 67.4416 159.82 70.6116C159.82 73.7816 158.56 76.8218 156.316 79.0633C154.073 81.3048 151.03 82.5641 147.858 82.5641Z" fill="#36BAE8"/>
</g>
<path d="M85.45 51.2824V104.718C85.339 112.257 82.2638 119.449 76.8889 124.741C71.514 130.033 64.271 133 56.725 133C49.179 133 41.936 130.033 36.5611 124.741C31.1862 119.449 28.111 112.257 28 104.718L28 51.2824C28.111 43.7434 31.1862 36.5507 36.5611 31.2587C41.936 25.9666 49.179 23 56.725 23C64.271 23 71.514 25.9666 76.8889 31.2587C82.2638 36.5507 85.339 43.7434 85.45 51.2824Z" fill="#E64D3C"/>
<g style="mix-blend-mode:multiply">
<path d="M67.9323 64.395H45.5116C42.3176 64.395 39.2543 63.1272 36.9958 60.8705C34.7373 58.6139 33.4685 55.5532 33.4685 52.3618C33.4685 49.1704 34.7373 46.1097 36.9958 43.853C39.2543 41.5964 42.3176 40.3286 45.5116 40.3286H67.9323C71.1263 40.3286 74.1895 41.5964 76.448 43.853C78.7065 46.1097 79.9754 49.1704 79.9754 52.3618C79.9754 55.5532 78.7065 58.6139 76.448 60.8705C74.1895 63.1272 71.1263 64.395 67.9323 64.395Z" fill="#992E26"/>
</g>
<g opacity="0.93">
<g style="mix-blend-mode:screen">
<path d="M67.9323 62.3652H45.5116C42.3176 62.3652 39.2543 61.0974 36.9958 58.8407C34.7373 56.5841 33.4685 53.5234 33.4685 50.332C33.4685 47.1406 34.7373 44.0799 36.9958 41.8233C39.2543 39.5666 42.3176 38.2988 45.5116 38.2988H67.9323C69.5138 38.2988 71.0798 38.6101 72.541 39.2148C74.0021 39.8195 75.3297 40.7059 76.448 41.8233C77.5663 42.9406 78.4534 44.2672 79.0586 45.7271C79.6639 47.187 79.9754 48.7518 79.9754 50.332C79.9754 51.9122 79.6639 53.477 79.0586 54.9369C78.4534 56.3968 77.5663 57.7234 76.448 58.8407C75.3297 59.9581 74.0021 60.8445 72.541 61.4492C71.0798 62.0539 69.5138 62.3652 67.9323 62.3652Z" fill="#D6A4A1"/>
</g>
</g>
<path d="M67.9323 63.4833H45.5116C42.3176 63.4833 39.2543 62.2156 36.9958 59.9589C34.7373 57.7023 33.4685 54.6416 33.4685 51.4502C33.4685 48.2588 34.7373 45.1981 36.9958 42.9414C39.2543 40.6848 42.3176 39.417 45.5116 39.417H67.9323C69.5138 39.417 71.0798 39.7282 72.541 40.333C74.0021 40.9377 75.3297 41.824 76.448 42.9414C77.5663 44.0588 78.4534 45.3853 79.0586 46.8453C79.6639 48.3052 79.9754 49.87 79.9754 51.4502C79.9754 53.0304 79.6639 54.5951 79.0586 56.0551C78.4534 57.515 77.5663 58.8415 76.448 59.9589C75.3297 61.0763 74.0021 61.9627 72.541 62.5674C71.0798 63.1721 69.5138 63.4833 67.9323 63.4833Z" fill="#E64D3C"/>
<g opacity="0.6">
<g filter="url(#filter3_f_127_978)">
<path d="M85.45 51.2824V104.718C85.339 112.257 82.2638 119.449 76.8889 124.741C71.514 130.033 64.271 133 56.725 133C49.179 133 41.936 130.033 36.5611 124.741C31.1862 119.449 28.111 112.257 28 104.718L28 51.2824C28.111 43.7434 31.1862 36.5507 36.5611 31.2587C41.936 25.9666 49.179 23 56.725 23C64.271 23 71.514 25.9666 76.8889 31.2587C82.2638 36.5507 85.339 43.7434 85.45 51.2824Z" fill="#E64D3C"/>
<g style="mix-blend-mode:multiply">
<path d="M67.9323 64.395H45.5116C42.3176 64.395 39.2543 63.1272 36.9958 60.8705C34.7373 58.6139 33.4685 55.5532 33.4685 52.3618C33.4685 49.1704 34.7373 46.1097 36.9958 43.853C39.2543 41.5964 42.3176 40.3286 45.5116 40.3286H67.9323C71.1263 40.3286 74.1895 41.5964 76.448 43.853C78.7065 46.1097 79.9754 49.1704 79.9754 52.3618C79.9754 55.5532 78.7065 58.6139 76.448 60.8705C74.1895 63.1272 71.1263 64.395 67.9323 64.395Z" fill="#992E26"/>
</g>
<g opacity="0.93">
<g style="mix-blend-mode:screen">
<path d="M67.9323 62.3652H45.5116C42.3176 62.3652 39.2543 61.0974 36.9958 58.8407C34.7373 56.5841 33.4685 53.5234 33.4685 50.332C33.4685 47.1406 34.7373 44.0799 36.9958 41.8233C39.2543 39.5666 42.3176 38.2988 45.5116 38.2988H67.9323C69.5138 38.2988 71.0798 38.6101 72.541 39.2148C74.0021 39.8195 75.3297 40.7059 76.448 41.8233C77.5663 42.9406 78.4534 44.2672 79.0586 45.7271C79.6639 47.187 79.9754 48.7518 79.9754 50.332C79.9754 51.9122 79.6639 53.477 79.0586 54.9369C78.4534 56.3968 77.5663 57.7234 76.448 58.8407C75.3297 59.9581 74.0021 60.8445 72.541 61.4492C71.0798 62.0539 69.5138 62.3652 67.9323 62.3652Z" fill="#D6A4A1"/>
</g>
</g>
<path d="M67.9323 63.4833H45.5116C42.3176 63.4833 39.2543 62.2156 36.9958 59.9589C34.7373 57.7023 33.4685 54.6416 33.4685 51.4502C33.4685 48.2588 34.7373 45.1981 36.9958 42.9414C39.2543 40.6848 42.3176 39.417 45.5116 39.417H67.9323C69.5138 39.417 71.0798 39.7282 72.541 40.333C74.0021 40.9377 75.3297 41.824 76.448 42.9414C77.5663 44.0588 78.4534 45.3853 79.0586 46.8453C79.6639 48.3052 79.9754 49.87 79.9754 51.4502C79.9754 53.0304 79.6639 54.5951 79.0586 56.0551C78.4534 57.515 77.5663 58.8415 76.448 59.9589C75.3297 61.0763 74.0021 61.9627 72.541 62.5674C71.0798 63.1721 69.5138 63.4833 67.9323 63.4833Z" fill="#E64D3C"/>
</g>
</g>
</g>
<defs>
<filter id="filter0_d_127_978" x="184" y="23" width="65.47" height="118" filterUnits="userSpaceOnUse" color-interpolation-filters="sRGB">
<feFlood flood-opacity="0" result="BackgroundImageFix"/>
<feColorMatrix in="SourceAlpha" type="matrix" values="0 0 0 0 0 0 0 0 0 0 0 0 0 0 0 0 0 0 127 0" result="hardAlpha"/>
<feOffset dy="4"/>
<feGaussianBlur stdDeviation="2"/>
<feComposite in2="hardAlpha" operator="out"/>
<feColorMatrix type="matrix" values="0 0 0 0 0 0 0 0 0 0 0 0 0 0 0 0 0 0 0.25 0"/>
<feBlend mode="normal" in2="BackgroundImageFix" result="effect1_dropShadow_127_978"/>
<feBlend mode="normal" in="SourceGraphic" in2="effect1_dropShadow_127_978" result="shape"/>
</filter>
<filter id="filter1_f_127_978" x="158" y="-7" width="117.47" height="170" filterUnits="userSpaceOnUse" color-interpolation-filters="sRGB">
<feFlood flood-opacity="0" result="BackgroundImageFix"/>
<feBlend mode="normal" in="SourceGraphic" in2="BackgroundImageFix" result="shape"/>
<feGaussianBlur stdDeviation="15" result="effect1_foregroundBlur_127_978"/>
</filter>
<filter id="filter2_f_127_978" x="78" y="12" width="117.45" height="170" filterUnits="userSpaceOnUse" color-interpolation-filters="sRGB">
<feFlood flood-opacity="0" result="BackgroundImageFix"/>
<feBlend mode="normal" in="SourceGraphic" in2="BackgroundImageFix" result="shape"/>
<feGaussianBlur stdDeviation="15" result="effect1_foregroundBlur_127_978"/>
</filter>
<filter id="filter3_f_127_978" x="-2" y="-7" width="117.45" height="170" filterUnits="userSpaceOnUse" color-interpolation-filters="sRGB">
<feFlood flood-opacity="0" result="BackgroundImageFix"/>
<feBlend mode="normal" in="SourceGraphic" in2="BackgroundImageFix" result="shape"/>
<feGaussianBlur stdDeviation="15" result="effect1_foregroundBlur_127_978"/>
</filter>
<clipPath id="clip0_127_978">
<rect width="268" height="172" fill="white"/>
</clipPath>
</defs>
</svg>
