<svg
  viewBox="0 0 120 140"
  xmlns="http://www.w3.org/2000/svg"
>
  <defs>
    
    <linearGradient id="bodyGradient" x1="0" y1="0" x2="1" y2="1">
      <stop offset="0%"  stop-color="#FF6B88" />
      <stop offset="40%" stop-color="#F53042" />
      <stop offset="100%" stop-color="#8B001B" />
    </linearGradient>

   
    <linearGradient id="sideShadow" x1="0" y1="0" x2="1" y2="0">
      <stop offset="0%" stop-color="rgba(0,0,0,0.55)" />
      <stop offset="70%" stop-color="rgba(0,0,0,0)" />
    </linearGradient>

   
    <linearGradient id="backpackGradient" x1="0" y1="0" x2="1" y2="1">
      <stop offset="0%"  stop-color="#A0002C" />
      <stop offset="100%" stop-color="#4B0012" />
    </linearGradient>

   
    <linearGradient id="visorGradient" x1="0" y1="0" x2="1" y2="1">
      <stop offset="0%"  stop-color="#F7FDFF" />
      <stop offset="40%" stop-color="#9DDBFF" />
      <stop offset="100%" stop-color="#3B79C9" />
    </linearGradient>

    
    <linearGradient id="visorShadow" x1="0" y1="0" x2="0" y2="1">
      <stop offset="0%"  stop-color="rgba(0,0,0,0.15)" />
      <stop offset="100%" stop-color="rgba(0,0,0,0.35)" />
    </linearGradient>
  </defs>


  <ellipse cx="60" cy="130" rx="32" ry="10" fill="rgba(0,0,0,0.35)" />


  <rect x="30" y="92" width="20" height="26" rx="9" fill="#650019" />
  <rect x="64" y="92" width="20" height="26" rx="9" fill="#650019" />

  <rect x="32" y="94" width="6" height="22" rx="3" fill="rgba(255,255,255,0.18)" />
  <rect x="66" y="94" width="6" height="22" rx="3" fill="rgba(255,255,255,0.18)" />

  
  <path
    d="M 26 35
       Q 26 18 42 18
       L 78 18
       Q 94 18 94 35
       L 94 84
       Q 94 102 78 102
       L 42 102
       Q 26 102 26 84 Z"
    fill="url(#bodyGradient)"
  />


  <path
    d="M 28 36
       Q 28 22 38 22
       L 48 22
       L 48 98
       L 38 98
       Q 28 98 28 86 Z"
    fill="url(#sideShadow)"
  />

  
  <path
    d="M 80 22
       Q 90 22 90 34
       L 90 80
       Q 90 92 80 100
       L 78 100
       Q 86 92 86 80
       L 86 34
       Q 86 26 80 22 Z"
    fill="rgba(255,255,255,0.23)"
  />

  
  <path
    d="M 86 46
       Q 98 46 101 56
       L 101 86
       Q 101 96 91 96
       L 83 96
       Q 75 96 75 88
       L 75 56
       Q 75 46 86 46 Z"
    fill="url(#backpackGradient)"
  />
  
  <path
    d="M 86 50
       Q 95 50 97 58
       L 97 82
       Q 97 90 90 92
       L 88 92
       Q 93 89 93 82
       L 93 58
       Q 93 53 89 50 Z"
    fill="rgba(255,255,255,0.22)"
  />

  
  <ellipse cx="54" cy="43" rx="24" ry="18" fill="url(#visorGradient)" />

  
  <ellipse cx="54" cy="46" rx="22" ry="15" fill="url(#visorShadow)" />
  
  <ellipse cx="47" cy="37" rx="11" ry="7" fill="rgba(255,255,255,0.95)" />
  
  <ellipse cx="63" cy="48" rx="5" ry="3.5" fill="rgba(255,255,255,0.7)" />


  <path
    d="M 40 26
       Q 52 24 58 30
       Q 50 30 44 32
       Q 38 34 34 40
       Q 34 33 40 26 Z"
    fill="rgba(255,255,255,0.20)"
  />
</svg>
