<svg width="323" height="532" viewBox="0 0 323 532" fill="none" xmlns="http://www.w3.org/2000/svg">
<g opacity="0.54">
<g filter="url(#filter0_f_59_350)">
<path d="M234 612C298.507 612 350.8 592.556 350.8 568.571C350.8 544.586 298.507 525.143 234 525.143C169.493 525.143 117.2 544.586 117.2 568.571C117.2 592.556 169.493 612 234 612Z" fill="black" fill-opacity="0.35"/>
<path d="M164.65 403.543H157.35C139.207 403.543 124.5 421.042 124.5 442.629V477.372C124.5 498.958 139.207 516.457 157.35 516.457H164.65C182.793 516.457 197.5 498.958 197.5 477.372V442.629C197.5 421.042 182.793 403.543 164.65 403.543Z" fill="#650019"/>
<path d="M288.75 403.543H281.45C263.307 403.543 248.6 421.042 248.6 442.629V477.372C248.6 498.958 263.307 516.457 281.45 516.457H288.75C306.893 516.457 321.6 498.958 321.6 477.372V442.629C321.6 421.042 306.893 403.543 288.75 403.543Z" fill="#650019"/>
<path d="M153.7 425.257C153.7 418.062 148.798 412.229 142.75 412.229C136.703 412.229 131.8 418.062 131.8 425.257V494.743C131.8 501.938 136.703 507.771 142.75 507.771C148.798 507.771 153.7 501.938 153.7 494.743V425.257Z" fill="white" fill-opacity="0.18"/>
<path d="M277.8 425.257C277.8 418.062 272.898 412.229 266.85 412.229C260.803 412.229 255.9 418.062 255.9 425.257V494.743C255.9 501.938 260.803 507.771 266.85 507.771C272.898 507.771 277.8 501.938 277.8 494.743V425.257Z" fill="white" fill-opacity="0.18"/>
<path opacity="0.75" d="M109.9 156C109.9 106.781 129.367 82.1714 168.3 82.1714H299.7C338.633 82.1714 358.1 106.781 358.1 156V368.8C358.1 420.914 338.633 446.971 299.7 446.971H168.3C129.367 446.971 109.9 420.914 109.9 368.8V156Z" fill="url(#paint0_linear_59_350)"/>
<path d="M117.2 160.343C117.2 119.81 129.367 99.543 153.7 99.543H190.2V429.6H153.7C129.367 429.6 117.2 412.229 117.2 377.486V160.343Z" fill="url(#paint1_linear_59_350)"/>
<path d="M307 64.7998C331.333 64.7998 343.5 82.1712 343.5 116.914V316.686C343.5 351.428 331.333 380.381 307 403.543H299.7C319.167 380.381 328.9 351.428 328.9 316.686V116.914C328.9 93.7522 321.6 76.3808 307 64.7998Z" fill="white" fill-opacity="0.23"/>
<path d="M328.9 203.771C358.1 203.771 376.35 218.248 383.65 247.2V377.486C383.65 406.438 371.483 420.914 347.15 420.914H317.95C298.483 420.914 288.75 409.333 288.75 386.171V247.2C288.75 218.248 302.133 203.771 328.9 203.771Z" fill="url(#paint2_linear_59_350)"/>
<path d="M212.1 268.914C260.48 268.914 299.7 233.916 299.7 190.743C299.7 147.57 260.48 112.571 212.1 112.571C163.72 112.571 124.5 147.57 124.5 190.743C124.5 233.916 163.72 268.914 212.1 268.914Z" fill="url(#paint3_linear_59_350)"/>
<path d="M212.1 268.914C256.449 268.914 292.4 239.749 292.4 203.771C292.4 167.794 256.449 138.628 212.1 138.628C167.752 138.628 131.8 167.794 131.8 203.771C131.8 239.749 167.752 268.914 212.1 268.914Z" fill="url(#paint4_linear_59_350)"/>
<path d="M186.55 195.086C208.724 195.086 226.7 181.475 226.7 164.686C226.7 147.896 208.724 134.286 186.55 134.286C164.376 134.286 146.4 147.896 146.4 164.686C146.4 181.475 164.376 195.086 186.55 195.086Z" fill="white" fill-opacity="0.95"/>
<path d="M244.95 227.657C255.029 227.657 263.2 220.852 263.2 212.457C263.2 204.063 255.029 197.257 244.95 197.257C234.871 197.257 226.7 204.063 226.7 212.457C226.7 220.852 234.871 227.657 244.95 227.657Z" fill="white" fill-opacity="0.7"/>
<path d="M161 116.914C190.2 111.124 212.1 116.914 226.7 134.286C207.233 134.286 190.2 137.181 175.6 142.971C161 148.762 148.833 160.343 139.1 177.714C139.1 157.447 146.4 137.181 161 116.914Z" fill="white" fill-opacity="0.2"/>
</g>
<g filter="url(#filter1_f_59_350)">
<path d="M219 608C283.507 608 335.8 588.556 335.8 564.571C335.8 540.586 283.507 521.143 219 521.143C154.493 521.143 102.2 540.586 102.2 564.571C102.2 588.556 154.493 608 219 608Z" fill="black" fill-opacity="0.35"/>
<path d="M149.65 399.543H142.35C124.207 399.543 109.5 417.042 109.5 438.629V473.372C109.5 494.958 124.207 512.457 142.35 512.457H149.65C167.793 512.457 182.5 494.958 182.5 473.372V438.629C182.5 417.042 167.793 399.543 149.65 399.543Z" fill="#650019"/>
<path d="M273.75 399.543H266.45C248.307 399.543 233.6 417.042 233.6 438.629V473.372C233.6 494.958 248.307 512.457 266.45 512.457H273.75C291.893 512.457 306.6 494.958 306.6 473.372V438.629C306.6 417.042 291.893 399.543 273.75 399.543Z" fill="#650019"/>
<path d="M138.7 421.257C138.7 414.062 133.798 408.229 127.75 408.229C121.703 408.229 116.8 414.062 116.8 421.257V490.743C116.8 497.938 121.703 503.771 127.75 503.771C133.798 503.771 138.7 497.938 138.7 490.743V421.257Z" fill="white" fill-opacity="0.18"/>
<path d="M262.8 421.257C262.8 414.062 257.898 408.229 251.85 408.229C245.803 408.229 240.9 414.062 240.9 421.257V490.743C240.9 497.938 245.803 503.771 251.85 503.771C257.898 503.771 262.8 497.938 262.8 490.743V421.257Z" fill="white" fill-opacity="0.18"/>
<path opacity="0.75" d="M94.9 152C94.9 102.781 114.367 78.1714 153.3 78.1714H284.7C323.633 78.1714 343.1 102.781 343.1 152V364.8C343.1 416.914 323.633 442.971 284.7 442.971H153.3C114.367 442.971 94.9 416.914 94.9 364.8V152Z" fill="url(#paint5_linear_59_350)"/>
<path d="M102.2 156.343C102.2 115.81 114.367 95.543 138.7 95.543H175.2V425.6H138.7C114.367 425.6 102.2 408.229 102.2 373.486V156.343Z" fill="url(#paint6_linear_59_350)"/>
<path d="M292 60.7998C316.333 60.7998 328.5 78.1712 328.5 112.914V312.686C328.5 347.428 316.333 376.381 292 399.543H284.7C304.167 376.381 313.9 347.428 313.9 312.686V112.914C313.9 89.7522 306.6 72.3808 292 60.7998Z" fill="white" fill-opacity="0.23"/>
<path d="M313.9 199.771C343.1 199.771 361.35 214.248 368.65 243.2V373.486C368.65 402.438 356.483 416.914 332.15 416.914H302.95C283.483 416.914 273.75 405.333 273.75 382.171V243.2C273.75 214.248 287.133 199.771 313.9 199.771Z" fill="url(#paint7_linear_59_350)"/>
<path d="M313.9 217.143C335.8 217.143 349.183 228.724 354.05 251.886V356.114C354.05 379.276 345.533 393.753 328.5 399.543H321.2C333.367 390.857 339.45 376.381 339.45 356.114V251.886C339.45 237.41 334.583 225.829 324.85 217.143H313.9Z" fill="white" fill-opacity="0.22"/>
<path d="M197.1 264.914C245.48 264.914 284.7 229.916 284.7 186.743C284.7 143.57 245.48 108.571 197.1 108.571C148.72 108.571 109.5 143.57 109.5 186.743C109.5 229.916 148.72 264.914 197.1 264.914Z" fill="url(#paint8_linear_59_350)"/>
<path d="M197.1 264.914C241.449 264.914 277.4 235.749 277.4 199.771C277.4 163.794 241.449 134.628 197.1 134.628C152.752 134.628 116.8 163.794 116.8 199.771C116.8 235.749 152.752 264.914 197.1 264.914Z" fill="url(#paint9_linear_59_350)"/>
<path d="M171.55 191.086C193.724 191.086 211.7 177.475 211.7 160.686C211.7 143.896 193.724 130.286 171.55 130.286C149.376 130.286 131.4 143.896 131.4 160.686C131.4 177.475 149.376 191.086 171.55 191.086Z" fill="white" fill-opacity="0.95"/>
<path d="M229.95 223.657C240.029 223.657 248.2 216.852 248.2 208.457C248.2 200.063 240.029 193.257 229.95 193.257C219.871 193.257 211.7 200.063 211.7 208.457C211.7 216.852 219.871 223.657 229.95 223.657Z" fill="white" fill-opacity="0.7"/>
<path d="M146 112.914C175.2 107.124 197.1 112.914 211.7 130.286C192.233 130.286 175.2 133.181 160.6 138.971C146 144.762 133.833 156.343 124.1 173.714C124.1 153.447 131.4 133.181 146 112.914Z" fill="white" fill-opacity="0.2"/>
</g>
</g>
<defs>
<filter id="filter0_f_59_350" x="7" y="-4" width="454" height="624" filterUnits="userSpaceOnUse" color-interpolation-filters="sRGB">
<feFlood flood-opacity="0" result="BackgroundImageFix"/>
<feBlend mode="normal" in="SourceGraphic" in2="BackgroundImageFix" result="shape"/>
<feGaussianBlur stdDeviation="4" result="effect1_foregroundBlur_59_350"/>
</filter>
<filter id="filter1_f_59_350" x="-1" y="-1" width="440" height="610" filterUnits="userSpaceOnUse" color-interpolation-filters="sRGB">
<feFlood flood-opacity="0" result="BackgroundImageFix"/>
<feBlend mode="normal" in="SourceGraphic" in2="BackgroundImageFix" result="shape"/>
<feGaussianBlur stdDeviation="0.5" result="effect1_foregroundBlur_59_350"/>
</filter>
<linearGradient id="paint0_linear_59_350" x1="109.9" y1="82.1714" x2="449.224" y2="313.038" gradientUnits="userSpaceOnUse">
<stop stop-color="#FF6B88"/>
<stop offset="0.4" stop-color="#F53042"/>
<stop offset="1" stop-color="#8B001B"/>
</linearGradient>
<linearGradient id="paint1_linear_59_350" x1="117.2" y1="99.543" x2="190.2" y2="99.543" gradientUnits="userSpaceOnUse">
<stop stop-opacity="0.55"/>
<stop offset="0.7" stop-opacity="0"/>
</linearGradient>
<linearGradient id="paint2_linear_59_350" x1="288.75" y1="203.771" x2="448.111" y2="273.419" gradientUnits="userSpaceOnUse">
<stop stop-color="#A0002C"/>
<stop offset="1" stop-color="#4B0012"/>
</linearGradient>
<linearGradient id="paint3_linear_59_350" x1="124.5" y1="112.571" x2="279.835" y2="286.641" gradientUnits="userSpaceOnUse">
<stop stop-color="#F7FDFF"/>
<stop offset="0.4" stop-color="#9DDBFF"/>
<stop offset="1" stop-color="#3B79C9"/>
</linearGradient>
<linearGradient id="paint4_linear_59_350" x1="131.8" y1="138.628" x2="131.8" y2="268.914" gradientUnits="userSpaceOnUse">
<stop stop-opacity="0.15"/>
<stop offset="1" stop-opacity="0.35"/>
</linearGradient>
<linearGradient id="paint5_linear_59_350" x1="94.9" y1="78.1714" x2="434.224" y2="309.038" gradientUnits="userSpaceOnUse">
<stop stop-color="#FF6B88"/>
<stop offset="0.4" stop-color="#F53042"/>
<stop offset="1" stop-color="#8B001B"/>
</linearGradient>
<linearGradient id="paint6_linear_59_350" x1="102.2" y1="95.543" x2="175.2" y2="95.543" gradientUnits="userSpaceOnUse">
<stop stop-opacity="0.55"/>
<stop offset="0.7" stop-opacity="0"/>
</linearGradient>
<linearGradient id="paint7_linear_59_350" x1="273.75" y1="199.771" x2="433.111" y2="269.419" gradientUnits="userSpaceOnUse">
<stop stop-color="#A0002C"/>
<stop offset="1" stop-color="#4B0012"/>
</linearGradient>
<linearGradient id="paint8_linear_59_350" x1="109.5" y1="108.571" x2="264.835" y2="282.641" gradientUnits="userSpaceOnUse">
<stop stop-color="#F7FDFF"/>
<stop offset="0.4" stop-color="#9DDBFF"/>
<stop offset="1" stop-color="#3B79C9"/>
</linearGradient>
<linearGradient id="paint9_linear_59_350" x1="116.8" y1="134.628" x2="116.8" y2="264.914" gradientUnits="userSpaceOnUse">
<stop stop-opacity="0.15"/>
<stop offset="1" stop-opacity="0.35"/>
</linearGradient>
</defs>
</svg>
