<svg viewBox="0 0 1440 600" xmlns="http://www.w3.org/2000/svg">
  <defs>
    
    <clipPath id="floorClip">
     
      <polygon points="0,600 1440,600 1200,220 240,220" />
    </clipPath>
  </defs>

 
  <g clip-path="url(#floorClip)" stroke="#FFFFFF" stroke-opacity="0.12" stroke-width="1">
   
    <line x1="0" y1="600" x2="720" y2="180" />
    <line x1="160" y1="600" x2="720" y2="180" />
    <line x1="320" y1="600" x2="720" y2="180" />
    <line x1="480" y1="600" x2="720" y2="180" />
    <line x1="640" y1="600" x2="720" y2="180" />
    <line x1="800" y1="600" x2="720" y2="180" />
    <line x1="960" y1="600" x2="720" y2="180" />
    <line x1="1120" y1="600" x2="720" y2="180" />
    <line x1="1280" y1="600" x2="720" y2="180" />
    <line x1="1440" y1="600" x2="720" y2="180" />

    
    <line x1="0" y1="560" x2="1440" y2="560" />
    <line x1="0" y1="520" x2="1440" y2="520" />
    <line x1="0" y1="480" x2="1440" y2="480" />
    <line x1="0" y1="440" x2="1440" y2="440" />
    <line x1="0" y1="405" x2="1440" y2="405" />
    <line x1="0" y1="375" x2="1440" y2="375" />
    <line x1="0" y1="350" x2="1440" y2="350" />
    <line x1="0" y1="330" x2="1440" y2="330" />
    <line x1="0" y1="315" x2="1440" y2="315" />
    <line x1="0" y1="305" x2="1440" y2="305" />
    <line x1="0" y1="298" x2="1440" y2="298" />
  </g>
</svg>
